<svg width="439" height="120" viewBox="0 0 439 120" fill="none" xmlns="http://www.w3.org/2000/svg">
<path d="M428.601 30.7017L299.835 25.8113L268.301 36.5382L112.564 48.7983L430.072 37.6463C429.622 35.3152 429.139 32.998 428.601 30.7017Z" fill="#F6E8F9"/>
<path d="M121.316 59.0687L150.208 66.4244L194.107 55.8508C124.664 59.4538 124.717 59.9033 121.316 59.0687Z" fill="#DEEFEC"/>
<path d="M299.165 9.75989L328.057 12.638L371.955 8.50024C371.955 8.50024 301.042 9.93934 299.165 9.75989Z" fill="#F6E8F9"/>
<path d="M438.279 119.5V90.0267H432.598V85.5755H433.652V83.6698H432.598V82.7195H429.881V61.3432H430.739V59.7977H429.881V59.0258H427.681V41.6874H428.374V40.4335H427.681V39.8091H425.958V20.4843H426.654V19.2322H425.958V19.0332H424.436V17.9748H422.371V17.4139H415.193V17.9748H413.13V19.0332H410.527V19.2322H409.836V20.4843H410.527V39.8091H408.805V40.4335H408.109V41.6874H408.805V59.0258H406.601V59.7977H405.747V61.3432H406.601V76.2476H404.813V74.6369H392.213V55.5969H389.891V53.9862H386.75V53.1337H375.84V53.9862H372.699V55.5969H369.566V32.073L369.588 32.0473L369.566 32.0541V32.0421L369.557 32.0593L348.732 39.8468L348.779 87.5361H346.264V84.054L336.84 86.994L325.33 83.4039L325.326 73.2166H325.809V72.2097H323.006V44.6583H324.264V43.6531H318.805V17.2201H320.063V16.2132H314.942L307.453 6.8064L299.845 16.2132H293.707V17.2201H294.961V43.6531H289.506V44.6583H290.757V55.6603L273.701 60.9915V66.3193L270.073 67.4411V69.3469L271.129 69.0192V91.6717H268.674L268.905 50.8969L267.174 49.3994L267.231 39.008L267.107 39.0887L267.194 39.008L246.424 41.816L246.351 41.7868L246.074 91.6717H245.097V55.5969H242.775V53.9862H225.585V55.5969H222.68V73.5322H217.565V50.8969H215.056V49.1078H214.041V47.5246L211.06 46.6944V43.1951L204.774 44.943L198.487 43.1951V49.1078H197.476V50.8969H194.964V90.0267H191.505V85.5755H192.565V83.6698H191.505V82.7195H188.79V61.3432H189.65V59.7977H188.79V59.0258H186.588V41.6874H187.285V40.4335H186.588V39.8091H184.868V20.4843H185.563V19.2322H184.868V19.0332H183.347V17.9748H181.278V17.4139H174.107V17.9748H172.042V19.0332H169.436V19.2322H168.741V20.4843H169.436V39.8091H167.714V40.4335H167.019V41.6874H167.714V59.0258H165.514V59.7977H164.656V61.3432H165.514V76.2476H163.727V74.6369H151.118V55.5969H148.801V53.9862H145.661V53.1337H134.749V53.9862H131.61V55.5969H128.477V32.073L128.493 32.0473L128.477 32.0541V32.0421L128.465 32.0593L107.641 39.8468L107.684 87.5361H105.177V84.054L95.7468 86.994L94.7724 83.4039L94.7663 73.2166H95.2494V72.2097H92.4485V44.6583H93.7042V43.6531H88.2472V29.4314H89.5029V28.4228H84.3822L76.8948 19.0177L69.2871 28.4228H63.1492V29.4314H64.4009V43.6531H58.9479V44.6583H60.2016V72.2097H57.3986V73.2166H57.8818V119.5H438.279Z" fill="#671E75"/>
<path d="M421.367 117V94.7113H404.596V50.1781H401.779V48.1414H400.649V41.4129L393.607 43.406L386.568 41.4129V45.3974L383.236 46.3417V48.1414H382.097V50.1781H379.288V75.9388H373.565V55.5267H370.31V53.6922H351.06V55.5267H348.465V96.5842H347.371L347.062 39.81L346.978 39.8449L323.726 36.6479L323.826 36.7402L323.683 36.6479L323.75 48.4742L321.809 50.1798L322.068 96.5842H319.32V70.8026L320.505 71.1755V69.0081L316.44 67.7293V61.6664L297.345 55.5999V43.0802H298.752V41.9338H292.64V11.8507H294.045V10.7043H287.171L278.653 0L270.273 10.7043H264.539V11.8507H265.943V41.9338H259.832V43.0802H261.24V74.4335H258.105V75.5781H258.645L258.639 87.1727L245.754 91.2599L235.199 87.9131V91.8767H232.388L232.439 37.6044L209.125 28.7399L209.109 28.7225V28.7347L209.091 28.7277L209.109 28.7573V55.5267H205.606V53.6922H202.09V52.7235H189.873V53.6922H186.356V55.5267H183.763V77.1966H169.652V79.0312H167.649V62.0671H168.607V60.3109H167.649V59.4311H165.181V39.6985H165.961V38.2734H165.181V37.5608H163.256V15.5669H164.034V14.14H163.256V13.917H160.341V12.7096H158.032V12.0737H149.998V12.7096H147.684V13.917H145.98V14.14H145.202V15.5669H145.98V37.5608H144.047V38.2734H143.273V39.6985H144.047V59.4311H141.588V60.3109H140.629V62.0671H141.588V86.3939H138.547V87.4776H137.362V89.6449H138.547V94.7113H117.46V50.1781H114.645V48.1414H113.513V41.4129L106.475 43.406L99.4381 41.4129V45.3974L96.0997 46.3417V48.1414H94.9652V50.1781H92.1523V75.9388H86.4309V55.5267H83.174V53.6922H63.928V55.5267H61.331V96.5842H60.2393L59.9276 39.81L59.8462 39.8449L36.5896 36.6479L36.6915 36.7402L36.5509 36.6479L36.6202 48.4742L34.677 50.1798L34.9316 96.5842H32.188V70.8026L33.3714 71.1755V69.0081L29.308 67.7293V61.6664L4.06551 53.6486V59.7882L0 58.5112V60.6768L1.18136 61.0496V117H421.367Z" fill="#B87FC2"/>
<path d="M438 90H1V120H438V90Z" fill="#34495E"/>
<path d="M336 105.5C336 109.643 278.916 113 208.501 113C138.084 113 81 109.642 81 105.5C81 101.358 138.084 98 208.501 98C278.917 98 336 101.358 336 105.5Z" fill="black"/>
<path d="M153.703 68.5035H162.829V63.134C157.789 63.134 153.703 65.5377 153.703 68.5035Z" fill="#BEB2AF"/>
<path d="M297.327 93.9832H167.169V100.075H297.327V93.9832Z" fill="#B5A8A2"/>
<path d="M300.578 56.1904H166.23V99.0919H300.578V56.1904Z" fill="#FCEDE6"/>
<path d="M298.764 57.8538H297.228V97.4294H298.764V57.8538Z" fill="#C7C7CB"/>
<path d="M297.699 57.854H297.141V97.4296H297.699V57.854Z" fill="#BEB2AF"/>
<path d="M295.691 57.8538H294.155V97.4294H295.691V57.8538Z" fill="#C7C7CB"/>
<path d="M294.626 57.854H294.068V97.4296H294.626V57.854Z" fill="#BEB2AF"/>
<path d="M292.617 57.8538H291.081V97.4294H292.617V57.8538Z" fill="#C7C7CB"/>
<path d="M291.552 57.8538H290.994V97.4294H291.552V57.8538Z" fill="#BEB2AF"/>
<path d="M289.543 57.8538H288.007V97.4294H289.543V57.8538Z" fill="#C7C7CB"/>
<path d="M288.478 57.8538H287.919V97.4294H288.478V57.8538Z" fill="#BEB2AF"/>
<path d="M286.469 57.8538H284.934V97.4294H286.469V57.8538Z" fill="#C7C7CB"/>
<path d="M285.404 57.854H284.846V97.4296H285.404V57.854Z" fill="#BEB2AF"/>
<path d="M283.396 57.8538H281.86V97.4294H283.396V57.8538Z" fill="#C7C7CB"/>
<path d="M282.331 57.854H281.772V97.4296H282.331V57.854Z" fill="#BEB2AF"/>
<path d="M280.323 57.8538H278.787V97.4294H280.323V57.8538Z" fill="#C7C7CB"/>
<path d="M279.257 57.854H278.699V97.4296H279.257V57.854Z" fill="#BEB2AF"/>
<path d="M277.249 57.8538H275.713V97.4294H277.249V57.8538Z" fill="#C7C7CB"/>
<path d="M276.183 57.854H275.626V97.4296H276.183V57.854Z" fill="#BEB2AF"/>
<path d="M274.175 57.8538H272.639V97.4294H274.175V57.8538Z" fill="#C7C7CB"/>
<path d="M273.11 57.854H272.551V97.4296H273.11V57.854Z" fill="#BEB2AF"/>
<path d="M271.1 57.8538H269.565V97.4294H271.1V57.8538Z" fill="#C7C7CB"/>
<path d="M270.036 57.8538H269.478V97.4294H270.036V57.8538Z" fill="#BEB2AF"/>
<path d="M268.027 57.8538H266.492V97.4294H268.027V57.8538Z" fill="#C7C7CB"/>
<path d="M266.962 57.854H266.404V97.4296H266.962V57.854Z" fill="#BEB2AF"/>
<path d="M264.954 57.8538H263.418V97.4294H264.954V57.8538Z" fill="#C7C7CB"/>
<path d="M263.889 57.8538H263.331V97.4294H263.889V57.8538Z" fill="#BEB2AF"/>
<path d="M261.879 57.8538H260.344V97.4294H261.879V57.8538Z" fill="#C7C7CB"/>
<path d="M260.815 57.854H260.257V97.4296H260.815V57.854Z" fill="#BEB2AF"/>
<path d="M258.805 57.8538H257.27V97.4294H258.805V57.8538Z" fill="#C7C7CB"/>
<path d="M257.741 57.8538H257.182V97.4294H257.741V57.8538Z" fill="#BEB2AF"/>
<path d="M255.734 57.8538H254.197V97.4294H255.734V57.8538Z" fill="#C7C7CB"/>
<path d="M254.667 57.854H254.108V97.4296H254.667V57.854Z" fill="#BEB2AF"/>
<path d="M252.659 57.8538H251.123V97.4294H252.659V57.8538Z" fill="#C7C7CB"/>
<path d="M251.593 57.854H251.035V97.4296H251.593V57.854Z" fill="#BEB2AF"/>
<path d="M249.585 57.8538H248.05V97.4294H249.585V57.8538Z" fill="#C7C7CB"/>
<path d="M248.52 57.854H247.962V97.4296H248.52V57.854Z" fill="#BEB2AF"/>
<path d="M246.511 57.8538H244.975V97.4294H246.511V57.8538Z" fill="#C7C7CB"/>
<path d="M245.447 57.854H244.889V97.4296H245.447V57.854Z" fill="#BEB2AF"/>
<path d="M243.438 57.8538H241.903V97.4294H243.438V57.8538Z" fill="#C7C7CB"/>
<path d="M242.372 57.854H241.814V97.4296H242.372V57.854Z" fill="#BEB2AF"/>
<path d="M240.364 57.8538H238.829V97.4294H240.364V57.8538Z" fill="#C7C7CB"/>
<path d="M239.298 57.854H238.74V97.4296H239.298V57.854Z" fill="#BEB2AF"/>
<path d="M237.29 57.8538H235.754V97.4294H237.29V57.8538Z" fill="#C7C7CB"/>
<path d="M236.224 57.8538H235.666V97.4294H236.224V57.8538Z" fill="#BEB2AF"/>
<path d="M234.217 57.8538H232.681V97.4294H234.217V57.8538Z" fill="#C7C7CB"/>
<path d="M233.151 57.854H232.593V97.4296H233.151V57.854Z" fill="#BEB2AF"/>
<path d="M231.142 57.8538H229.606V97.4294H231.142V57.8538Z" fill="#C7C7CB"/>
<path d="M230.078 57.854H229.519V97.4296H230.078V57.854Z" fill="#BEB2AF"/>
<path d="M228.068 57.8538H226.533V97.4294H228.068V57.8538Z" fill="#C7C7CB"/>
<path d="M227.004 57.854H226.446V97.4296H227.004V57.854Z" fill="#BEB2AF"/>
<path d="M224.996 57.8538H223.46V97.4294H224.996V57.8538Z" fill="#C7C7CB"/>
<path d="M223.93 57.854H223.372V97.4296H223.93V57.854Z" fill="#BEB2AF"/>
<path d="M221.921 57.8538H220.385V97.4294H221.921V57.8538Z" fill="#C7C7CB"/>
<path d="M220.856 57.854H220.297V97.4296H220.856V57.854Z" fill="#BEB2AF"/>
<path d="M218.847 57.8538H217.312V97.4294H218.847V57.8538Z" fill="#C7C7CB"/>
<path d="M217.782 57.854H217.224V97.4296H217.782V57.854Z" fill="#BEB2AF"/>
<path d="M215.774 57.8538H214.239V97.4294H215.774V57.8538Z" fill="#C7C7CB"/>
<path d="M214.709 57.8538H214.151V97.4294H214.709V57.8538Z" fill="#BEB2AF"/>
<path d="M212.7 57.8538H211.164V97.4294H212.7V57.8538Z" fill="#C7C7CB"/>
<path d="M211.636 57.8538H211.077V97.4294H211.636V57.8538Z" fill="#BEB2AF"/>
<path d="M209.626 57.8538H208.09V97.4294H209.626V57.8538Z" fill="#C7C7CB"/>
<path d="M208.561 57.854H208.004V97.4296H208.561V57.854Z" fill="#BEB2AF"/>
<path d="M206.553 57.8538H205.018V97.4294H206.553V57.8538Z" fill="#C7C7CB"/>
<path d="M205.487 57.854H204.929V97.4296H205.487V57.854Z" fill="#BEB2AF"/>
<path d="M203.479 57.8538H201.943V97.4294H203.479V57.8538Z" fill="#C7C7CB"/>
<path d="M202.414 57.8538H201.856V97.4294H202.414V57.8538Z" fill="#BEB2AF"/>
<path d="M200.406 57.8538H198.87V97.4294H200.406V57.8538Z" fill="#C7C7CB"/>
<path d="M199.34 57.854H198.782V97.4296H199.34V57.854Z" fill="#BEB2AF"/>
<path d="M197.331 57.8538H195.795V97.4294H197.331V57.8538Z" fill="#C7C7CB"/>
<path d="M196.266 57.854H195.708V97.4296H196.266V57.854Z" fill="#BEB2AF"/>
<path d="M194.258 57.8538H192.722V97.4294H194.258V57.8538Z" fill="#C7C7CB"/>
<path d="M193.193 57.854H192.635V97.4296H193.193V57.854Z" fill="#BEB2AF"/>
<path d="M191.184 57.8538H189.648V97.4294H191.184V57.8538Z" fill="#C7C7CB"/>
<path d="M190.119 57.854H189.561V97.4296H190.119V57.854Z" fill="#BEB2AF"/>
<path d="M188.111 57.8538H186.575V97.4294H188.111V57.8538Z" fill="#C7C7CB"/>
<path d="M187.045 57.854H186.487V97.4296H187.045V57.854Z" fill="#BEB2AF"/>
<path d="M185.037 57.8538H183.501V97.4294H185.037V57.8538Z" fill="#C7C7CB"/>
<path d="M183.972 57.854H183.414V97.4296H183.972V57.854Z" fill="#BEB2AF"/>
<path d="M181.963 57.8538H180.427V97.4294H181.963V57.8538Z" fill="#C7C7CB"/>
<path d="M180.898 57.8538H180.34V97.4294H180.898V57.8538Z" fill="#BEB2AF"/>
<path d="M178.89 57.8538H177.354V97.4294H178.89V57.8538Z" fill="#C7C7CB"/>
<path d="M177.824 57.854H177.266V97.4296H177.824V57.854Z" fill="#BEB2AF"/>
<path d="M175.815 57.8538H174.28V97.4294H175.815V57.8538Z" fill="#C7C7CB"/>
<path d="M174.75 57.854H174.193V97.4296H174.75V57.854Z" fill="#BEB2AF"/>
<path d="M172.742 57.8538H171.206V97.4294H172.742V57.8538Z" fill="#C7C7CB"/>
<path d="M171.676 57.854H171.118V97.4296H171.676V57.854Z" fill="#BEB2AF"/>
<path d="M169.668 57.8538H168.132V97.4294H169.668V57.8538Z" fill="#C7C7CB"/>
<path d="M168.603 57.8542H168.045V97.4298H168.603V57.8542Z" fill="#BEB2AF"/>
<path d="M132.166 100.074C132.3 101.791 133.736 103.145 135.49 103.145H196.263C198.017 103.145 199.453 101.792 199.588 100.074H132.166Z" fill="#BEB2AF"/>
<path d="M162.829 67.3016L153.861 67.2893L140.421 82.8981L130.361 86.5122L130.341 100.134L162.829 100.171V67.3016Z" fill="#E6E6E8"/>
<path d="M145.34 85.7615L145.319 100.146L145.726 100.146L145.747 85.7621L145.34 85.7615Z" fill="#C7C7CB"/>
<path d="M152.643 71.5234V71.9282L161.854 71.9414L161.814 100.17L162.22 100.171L162.261 71.5376L152.643 71.5234Z" fill="#C7C7CB"/>
<path d="M162.828 87.2611L130.359 87.2241L130.357 88.2753L162.828 88.3122V87.2611Z" fill="#C7C7CB"/>
<path d="M162.828 100.171L130.34 100.135L130.339 101.151L162.828 101.188V100.171Z" fill="#B5A8A2"/>
<path d="M142.781 78.557L142.773 83.843L145.079 83.8467L145.088 78.5607L142.781 78.557Z" fill="#B5A8A2"/>
<path d="M157.738 85.7284L157.759 71.4295L152.908 71.4219L145.382 80.1627L145.374 85.7104L157.738 85.7284Z" fill="#4FB0D9"/>
<g opacity="0.2">
<g opacity="0.2">
<path opacity="0.2" d="M157.757 72.7329L145.374 85.066V85.7106L147.223 85.7134L157.753 75.2247L157.757 72.7329Z" fill="white"/>
<path opacity="0.2" d="M157.748 79.2491L157.752 76.7563L148.757 85.7162L151.251 85.7199L157.748 79.2491Z" fill="white"/>
</g>
</g>
<path d="M153.325 72.0389L157.758 72.0437L157.759 71.4295L152.908 71.4219L145.382 80.1627L145.374 85.7104L157.738 85.7284L157.739 85.1123L146.439 85.0962L146.446 80.0263L153.325 72.0389Z" fill="#3B93B6"/>
<path d="M142.121 89.7489L142.12 90.5583L143.918 90.5613L143.919 89.7519L142.121 89.7489Z" fill="#F3A949"/>
<path d="M130.356 89.7496L130.347 95.0925L132.145 95.0955L132.154 89.7526L130.356 89.7496Z" fill="#F3A949"/>
<path d="M130.35 93.8079L130.348 94.6477L131.621 94.6496L131.622 93.8098L130.35 93.8079Z" fill="#EC8040"/>
<path d="M131.622 93.3514L130.35 93.3495L130.355 90.1326L131.627 90.1335L131.622 93.3514Z" fill="#F8C582"/>
<path d="M143.94 94.6492C140.363 94.6444 137.458 97.5372 137.453 101.11L150.407 101.128C150.412 97.5562 147.517 94.6539 143.94 94.6492Z" fill="#B5A8A2"/>
<path d="M149.519 101.54C149.515 104.624 147.009 107.121 143.922 107.116C140.834 107.113 138.336 104.608 138.34 101.525C138.344 98.4408 140.85 95.9452 143.938 95.95C147.025 95.9537 149.523 98.457 149.519 101.54Z" fill="#1B1408"/>
<path d="M147.581 101.538C147.577 103.552 145.941 105.184 143.923 105.181C141.907 105.178 140.274 103.542 140.277 101.528C140.28 99.5136 141.917 97.8815 143.934 97.8853C145.951 97.8881 147.584 99.5231 147.581 101.538Z" fill="#B5A8A2"/>
<path d="M146.783 101.537C146.781 103.112 145.501 104.385 143.926 104.384C142.35 104.382 141.074 103.102 141.076 101.529C141.079 99.9544 142.359 98.6805 143.935 98.6824C145.51 98.6843 146.785 99.9619 146.783 101.537Z" fill="#E6E6E8"/>
<path d="M167.125 95.9487H156.41V101.609H167.125V95.9487Z" fill="#1B1408"/>
<path d="M157.284 100.656V96.9051H158.106V96.3687H156.8V101.192H158.106V100.656H157.284Z" fill="#0E0903"/>
<path d="M158.907 100.655V96.9044H159.731V96.3679H158.424V101.191H159.731V100.655H158.907Z" fill="#0E0903"/>
<path d="M160.532 100.655V96.9044H161.355V96.3679H160.049V101.191H161.355V100.655H160.532Z" fill="#0E0903"/>
<path d="M162.157 100.655V96.9044H162.98V96.3679H161.673V101.191H162.98V100.655H162.157Z" fill="#0E0903"/>
<path d="M163.781 100.655V96.9044H164.605V96.3679H163.298V101.191H164.605V100.655H163.781Z" fill="#0E0903"/>
<path d="M165.407 100.655V96.9044H166.23V96.3679H164.923V101.191H166.23V100.655H165.407Z" fill="#0E0903"/>
<path d="M177.73 94.6494C174.153 94.6447 171.249 97.5374 171.244 101.11L184.198 101.129C184.203 97.5564 181.307 94.6542 177.73 94.6494Z" fill="#B5A8A2"/>
<path d="M183.309 101.54C183.305 104.624 180.798 107.121 177.712 107.116C174.625 107.112 172.126 104.608 172.131 101.525C172.136 98.4408 174.64 95.9452 177.729 95.95C180.815 95.9537 183.314 98.457 183.309 101.54Z" fill="#1B1408"/>
<path d="M181.371 101.538C181.368 103.552 179.731 105.184 177.715 105.181C175.698 105.178 174.065 103.542 174.068 101.528C174.072 99.5136 175.709 97.8815 177.726 97.8853C179.742 97.8881 181.374 99.5231 181.371 101.538Z" fill="#B5A8A2"/>
<path d="M180.573 101.537C180.57 103.112 179.291 104.385 177.716 104.384C176.14 104.382 174.864 103.102 174.866 101.529C174.869 99.9544 176.148 98.6805 177.724 98.6824C179.3 98.6843 180.576 99.9619 180.573 101.537Z" fill="#E6E6E8"/>
<path d="M189.795 94.6494C186.218 94.6447 183.314 97.5374 183.309 101.11L196.263 101.129C196.268 97.5564 193.373 94.6542 189.795 94.6494Z" fill="#B5A8A2"/>
<path d="M195.375 101.54C195.37 104.624 192.865 107.121 189.778 107.116C186.69 107.112 184.192 104.608 184.197 101.525C184.201 98.4408 186.707 95.9452 189.794 95.95C192.88 95.9537 195.38 98.457 195.375 101.54Z" fill="#1B1408"/>
<path d="M193.437 101.538C193.434 103.552 191.797 105.184 189.78 105.181C187.763 105.178 186.131 103.542 186.133 101.528C186.136 99.5136 187.774 97.8815 189.79 97.8853C191.807 97.8881 193.44 99.5231 193.437 101.538Z" fill="#B5A8A2"/>
<path d="M192.639 101.537C192.637 103.112 191.359 104.385 189.783 104.384C188.207 104.382 186.93 103.102 186.932 101.529C186.935 99.9544 188.214 98.6805 189.79 98.6824C191.366 98.6843 192.641 99.9619 192.639 101.537Z" fill="#E6E6E8"/>
<path d="M226.922 100.074C227.057 101.791 228.491 103.145 230.246 103.145H291.018C292.773 103.145 294.208 101.792 294.343 100.074H226.922Z" fill="#BEB2AF"/>
<path d="M272.485 94.6494C268.908 94.6447 266.004 97.5374 265.999 101.11L278.953 101.129C278.958 97.5564 276.062 94.6542 272.485 94.6494Z" fill="#B5A8A2"/>
<path d="M278.065 101.54C278.06 104.624 275.554 107.121 272.467 107.116C269.38 107.112 266.881 104.608 266.885 101.525C266.89 98.4408 269.396 95.9452 272.483 95.95C275.571 95.9537 278.07 98.457 278.065 101.54Z" fill="#1B1408"/>
<path d="M276.126 101.538C276.124 103.552 274.486 105.184 272.47 105.181C270.454 105.178 268.821 103.542 268.824 101.528C268.826 99.5136 270.464 97.8815 272.48 97.8853C274.497 97.8881 276.13 99.5231 276.126 101.538Z" fill="#B5A8A2"/>
<path d="M275.329 101.537C275.327 103.112 274.047 104.385 272.471 104.384C270.895 104.382 269.619 103.102 269.621 101.529C269.624 99.9553 270.903 98.6805 272.479 98.6824C274.056 98.6843 275.331 99.9619 275.329 101.537Z" fill="#E6E6E8"/>
<path d="M284.551 94.6494C280.974 94.6447 278.07 97.5374 278.065 101.11L291.018 101.129C291.024 97.5564 288.128 94.6542 284.551 94.6494Z" fill="#B5A8A2"/>
<path d="M290.13 101.54C290.125 104.624 287.62 107.121 284.532 107.116C281.445 107.112 278.946 104.608 278.95 101.525C278.955 98.4408 281.461 95.9452 284.548 95.95C287.637 95.9537 290.135 98.457 290.13 101.54Z" fill="#1B1408"/>
<path d="M288.193 101.538C288.19 103.552 286.552 105.184 284.536 105.181C282.519 105.178 280.887 103.542 280.889 101.528C280.891 99.5136 282.529 97.8815 284.546 97.8853C286.563 97.8881 288.195 99.5231 288.193 101.538Z" fill="#B5A8A2"/>
<path d="M287.395 101.537C287.392 103.112 286.114 104.385 284.537 104.384C282.961 104.382 281.685 103.102 281.687 101.529C281.689 99.9544 282.969 98.6805 284.545 98.6824C286.121 98.6843 287.397 99.9619 287.395 101.537Z" fill="#E6E6E8"/>
<path d="M161.977 62.3846L164.886 58.2682V56.8057L161.977 60.9363V62.3846Z" fill="#1B1408"/>
<path d="M162.98 78.689H161.673V60.4812L162.98 61.5153V78.689Z" fill="#1B1408"/>
<path d="M163.952 70.1199H160.702V88.3267H163.952V70.1199Z" fill="#1B1408"/>
<path d="M163.952 71.4988H160.702V72.1964H163.952V71.4988Z" fill="#0E0903"/>
<path d="M163.952 73.1221H160.702V73.8197H163.952V73.1221Z" fill="#0E0903"/>
<path d="M163.952 74.7449H160.702V75.4425H163.952V74.7449Z" fill="#0E0903"/>
<path d="M163.952 76.3689H160.702V77.0665H163.952V76.3689Z" fill="#0E0903"/>
<path d="M163.952 77.9915H160.702V78.6891H163.952V77.9915Z" fill="#0E0903"/>
<path d="M163.952 79.6152H160.702V80.3128H163.952V79.6152Z" fill="#0E0903"/>
<path d="M163.952 81.2375H160.702V81.9342H163.952V81.2375Z" fill="#0E0903"/>
<path d="M163.952 82.8613H160.702V83.5589H163.952V82.8613Z" fill="#0E0903"/>
<path d="M163.952 84.4839H160.702V85.1815H163.952V84.4839Z" fill="#0E0903"/>
<path d="M163.952 86.1077H160.702V86.8053H163.952V86.1077Z" fill="#0E0903"/>
</svg>
