<svg width="589" height="420" viewBox="0 0 589 420" fill="none" xmlns="http://www.w3.org/2000/svg">
<g clip-path="url(#clip0)">
<path d="M409.79 419.44C401.49 419.44 393.2 419.53 384.9 419.42C371.61 419.24 358.32 418.77 345.03 418.68C321.56 418.51 298.1 418.62 274.63 418.45C257 418.32 239.37 417.76 221.73 417.74C206.77 417.72 191.81 418.36 176.85 418.4C160.07 418.45 143.29 418.03 126.5 418.03C109.87 418.03 93.2401 418.47 76.6101 418.37C68.3101 418.32 60.0101 417.53 51.7201 417.01C35.5401 416 26.3901 405.74 20.0901 392.26C15.1901 381.77 14.7501 370.42 14.9001 359.01C15.1701 337.69 15.1401 316.36 15.2701 295.04C15.3201 286.06 15.4501 277.08 15.5601 268.1C15.6001 264.67 16.9301 262.96 20.5501 264.56C23.1401 265.7 25.6701 266.99 28.3101 268C33.3101 269.9 38.0401 269.41 42.5401 266.32C43.9401 265.36 45.7601 265 47.3901 264.36C47.9201 266.16 48.9201 267.96 48.9101 269.75C48.6801 298.23 48.1501 326.7 48.1201 355.18C48.1101 361.25 49.4101 367.42 50.8601 373.36C52.2101 378.88 55.9501 382.72 61.9601 383.42C67.7401 384.09 73.54 384.92 79.34 384.96C107.44 385.12 135.54 384.93 163.64 385.07C185.43 385.17 207.22 385.75 229.01 385.77C246.95 385.79 264.9 385.03 282.84 385.1C308.64 385.2 334.44 385.71 360.24 386.08C379.86 386.36 399.49 386.59 419.11 387.07C440.88 387.6 462.65 388.67 484.42 388.96C497.21 389.13 510.05 388.64 522.81 387.69C535.17 386.77 540.4 380.93 540.62 368.06C540.98 346.41 540.79 324.75 540.95 303.1C541.03 291.94 541.33 280.79 541.61 269.64C541.72 265.26 540.86 262.63 535.36 262.4C525.98 262.02 523.6 259.11 525.86 249.94C529.53 235.12 534.16 220.53 538.33 205.83C541.78 193.67 545.21 181.5 548.48 169.29C549.56 165.25 551.55 161.99 555.69 161.25C559.96 160.48 564.3 161.52 566.69 165.49C568.71 168.85 570.29 172.63 571.29 176.43C576.08 194.6 580.58 212.84 585.26 231.04C586.21 234.72 587.46 238.32 588.56 241.96C588.56 247.96 588.56 253.96 588.56 259.96C585.83 260.6 583.13 261.42 580.37 261.83C576.58 262.39 574.34 263.79 574.53 268.21C574.76 273.68 574.36 279.18 574.3 284.67C573.99 316.58 573.72 348.48 573.4 380.39C573.25 394.72 565.57 405.16 555.23 413.81C550.21 418.01 543.94 419.99 537.14 419.83C530.37 419.67 523.58 419.79 516.81 419.79" fill="#671E75"/>
<path d="M0 159.29C3.68 158.52 6.7 157.66 9.79 157.29C16.04 156.54 17.01 155.55 16.96 149.07C16.81 131.78 16.56 114.5 16.56 97.21C16.57 81.75 17.58 66.24 16.81 50.83C16.12 37.08 20.74 25.89 28.94 15.47C35.45 7.2 44.62 3.53 53.96 0C86.94 0 119.91 0 152.89 0C156.84 0.39 160.78 1.09 164.73 1.13C186.01 1.33 207.3 1.2 228.59 1.52C254.88 1.92 281.17 3.03 307.46 3.16C351.73 3.37 396 2.92 440.27 2.99C464.38 3.03 488.5 3.57 512.61 3.85C520.57 3.94 528.54 3.78 536.5 4C547.77 4.31 556.71 9.52 563.2 18.42C569.88 27.57 574.26 37.97 574.34 49.44C574.5 74.92 574.1 100.41 574.05 125.89C574.03 133.38 574.41 140.87 574.6 148.37C574.73 153.89 573.7 154.71 569.03 152.06C561.15 147.59 553.86 148.15 546.7 153.59C545.54 154.48 543.84 154.66 541.35 155.54C541.35 151.43 541.32 148.3 541.35 145.17C541.54 125.86 541.7 106.54 541.95 87.23C542.08 77.08 542.45 66.93 542.58 56.78C542.73 45.15 535.2 37.14 523.44 36.36C520.62 36.17 517.77 36.44 514.95 36.26C482.68 34.17 450.43 35.75 418.17 36.72C406.05 37.08 393.89 36.29 381.75 36.12C367.44 35.93 353.14 35.64 338.83 35.75C304.89 36.02 270.94 37.15 237.01 36.72C208.59 36.36 180.19 33.64 151.77 33.17C124.33 32.72 96.87 33.81 69.42 34.28C67.1 34.32 64.7 34.46 62.5 35.1C53.95 37.56 51.7 41.14 51.64 47.25C51.38 72.88 50.66 98.5 50.23 124.12C50.07 133.27 50.33 142.43 50.23 151.58C50.19 155.48 51.99 156.76 55.67 156.96C65.38 157.47 68.41 161.01 65.98 170.46C62.18 185.27 57.56 199.87 53.4 214.58C50.14 226.1 46.99 237.66 43.87 249.21C42.34 254.88 38.36 257.29 32.88 257.65C27.5 258 24.39 254.46 22.74 250.2C20.7 244.97 19.76 239.33 18.23 233.9C12.63 214.08 6.98 194.28 0.39 174.63" fill="#671E75"/>
<path d="M347.49 260.96C347.66 259.4 347.97 257.84 347.98 256.27C348.02 246.78 347.96 237.28 348.01 227.79C348.05 221.19 349.99 218.32 356.53 217.85C362.22 217.44 368.05 218.34 373.77 219.04C378.02 219.56 380.04 222.44 380.1 226.7C380.3 240.84 380.76 254.99 380.65 269.13C380.51 287.11 380.05 305.08 379.46 323.05C378.92 339.34 378.09 340.04 362.01 340.71C359.21 340.83 356.33 340.83 353.59 340.34C349.37 339.59 346.55 337.08 345.11 332.82C341.54 322.27 337.78 311.77 333.99 301.29C333.37 299.58 332.24 298.05 331.35 296.43C330.73 296.48 330.11 296.53 329.49 296.57C328.99 299.64 328.09 302.7 328.06 305.77C327.99 314.59 328.34 323.41 328.38 332.23C328.42 340.07 326.14 342.22 318.2 342.25C299.69 342.32 295.74 338.57 295.94 320.12C296.24 291.82 296.76 263.52 297.32 235.22C297.4 231.43 298.31 227.66 298.79 223.87C299.38 219.2 302.5 217.24 306.69 217.08C312 216.88 317.34 217 322.65 217.34C326.71 217.6 329.28 220.19 330.62 223.94C333.63 232.4 336.45 240.93 339.65 249.31C341.26 253.52 343.53 257.46 345.5 261.53C346.15 261.35 346.82 261.15 347.49 260.96Z" fill="#671E75"/>
<path d="M486.4 142.89C484.67 155.88 483.85 169.08 480.96 181.8C478.29 193.54 466.04 202.11 453.93 202.64C440.47 203.23 426.99 203.63 413.52 203.76C401.98 203.87 398.64 200.96 398.41 189.51C398.09 173.38 398.6 157.23 398.65 141.09C398.69 130.6 398.45 120.12 398.52 109.63C398.56 102.98 398.56 96.3 399.27 89.7C400.12 81.68 402.57 79.96 410.51 79.9C418.49 79.84 426.48 79.37 434.46 79.47C445.08 79.6 455.35 81.92 464.8 86.74C476.57 92.73 484.05 102.02 484.36 115.81C484.56 124.79 484.4 133.78 484.4 142.76C485.07 142.8 485.73 142.85 486.4 142.89ZM433.31 140.94C433.07 140.94 432.83 140.94 432.59 140.94C432.59 148.07 432.45 155.21 432.67 162.34C432.75 164.79 433.12 168.79 434.44 169.31C437.03 170.33 440.99 170.38 443.24 168.99C445.65 167.5 447.98 163.97 448.21 161.16C449.08 150.27 449.52 139.29 449.21 128.38C449.08 123.76 447.42 118.77 445.03 114.81C443.79 112.76 439.47 112.02 436.48 111.88C435.51 111.83 433.54 115.52 433.45 117.57C433.09 125.35 433.31 133.15 433.31 140.94Z" fill="#671E75"/>
<path d="M397.33 277.76C397.33 261.45 397.32 245.15 397.33 228.84C397.34 220.55 397.57 219.91 405.58 218.89C411.31 218.16 417.18 218.06 422.96 218.35C428.57 218.63 430.65 220.96 430.92 226.62C431.43 237.42 431.59 248.24 432.07 259.05C432.16 261.05 433.09 263 433.64 264.98C435.96 263.98 439.08 263.61 440.47 261.87C446.84 253.85 450.03 244.45 450.58 234.21C450.7 232.05 450.53 229.88 450.54 227.72C450.58 220.83 452.03 218.76 458.68 218.42C464.62 218.12 470.62 218.65 476.58 219.05C482.13 219.42 484.55 222.76 485.19 228.17C487.11 244.59 482.95 259.56 474.59 273.48C470.18 280.83 470.28 280.42 475.8 286.8C484.36 296.7 487.16 308.81 487.4 321.59C487.48 325.9 487.27 330.23 486.84 334.52C486.47 338.22 484.22 340.9 480.44 341.12C473.83 341.5 467.18 341.55 460.56 341.38C456.27 341.27 453.96 338.49 453.54 334.33C453.27 331.7 453.29 329.04 453.32 326.39C453.41 317.78 449.07 310.75 444.89 303.8C443.97 302.28 440.32 301.23 438.45 301.77C436.37 302.37 433.69 304.83 433.35 306.84C432.3 312.87 432.08 319.06 431.87 325.2C431.31 342 431.38 342 414.62 341.96C413.46 341.96 412.29 341.97 411.13 341.92C400.68 341.4 397.8 338.63 397.71 328.2C397.56 311.39 397.67 294.58 397.67 277.77C397.55 277.76 397.44 277.76 397.33 277.76Z" fill="#671E75"/>
<path d="M103.55 280.81C103.55 265.02 103.52 249.23 103.58 233.44C103.59 231.29 103.97 229.14 104.23 226.99C104.8 222.38 107.5 219.47 112.02 219.34C125.79 218.96 139.71 217.6 153.3 219.11C175.37 221.55 186.55 241.96 178.62 262.89C177.39 266.15 175.3 269.11 174.33 272.42C173.81 274.2 174.4 276.62 175.23 278.42C177.27 282.86 180.66 286.86 181.85 291.46C185.25 304.65 184.96 317.74 178.75 330.36C176.28 335.38 172.71 338.62 167.45 340.08C150.12 344.92 132.53 344.64 115.02 341.78C105.14 340.17 102.93 336.7 102.9 326.7C102.85 311.4 102.89 296.09 102.89 280.79C103.1 280.81 103.32 280.81 103.55 280.81ZM135.22 308.44C135.22 310.42 135.18 311.42 135.23 312.42C135.48 318.56 136.82 319.67 142.93 318.87C150.97 317.82 157.31 307.34 154.62 299.54C152.87 294.46 148.27 291.09 143.82 291.62C139.08 292.19 136.41 295.46 135.81 301.47C135.55 304.12 135.36 306.77 135.22 308.44ZM135.54 254.57C135.48 261.41 137.12 263.24 143.32 263.24C149.05 263.24 151.49 259.78 151.53 251.57C151.55 246.06 148.78 243.73 142.08 243.64C136.93 243.56 135.62 245.75 135.54 254.57Z" fill="#671E75"/>
<path d="M280.85 141.09C280.85 151.73 280.96 162.37 280.82 173.01C280.59 190.53 263.71 204.82 245.2 205.61C234.93 206.05 224.7 205.84 215.16 200.41C203.65 193.85 198.29 184.04 197.03 171.24C194.8 148.72 196.63 126.38 199.11 104C200.22 93.9599 206.26 88.1099 214.46 84.0099C232.97 74.7499 251.23 76.0999 268.77 86.6199C276.69 91.3699 279.79 99.4299 280.53 108.19C281.45 119.12 281.74 130.11 282.3 141.08C281.81 141.07 281.33 141.08 280.85 141.09ZM229.29 139.97C229.2 139.97 229.12 139.97 229.03 139.97C229.03 147.45 228.77 154.95 229.11 162.42C229.39 168.67 233.91 172.59 240.24 172.93C245.88 173.23 249.3 170.95 249.62 163.73C250.29 148.49 250.18 133.18 249.62 117.93C249.39 111.75 245.69 109.76 239.57 110.49C233.16 111.24 229.24 115.11 229.28 120.52C229.32 127 229.29 133.48 229.29 139.97Z" fill="#671E75"/>
<path d="M381.07 139.8C381.07 150.94 381.38 162.08 381 173.21C380.35 192.55 365.09 202.16 349.54 204.47C342.24 205.55 334.59 205.45 327.23 204.63C312.75 203 303.97 193.41 297.9 181.06C296.65 178.52 296.68 175.23 296.55 172.26C295.62 150.98 294.51 129.68 297.98 108.5C298.46 105.56 299.28 102.64 300.28 99.84C302.67 93.18 306.61 87.97 313.53 85.19C333.79 77.07 353.2 75.5 371.11 91.03C377.13 96.25 380.88 102.38 381.05 110.33C381.25 120.14 381.1 129.97 381.1 139.78C381.09 139.79 381.08 139.8 381.07 139.8ZM351.21 139.98C351.07 139.98 350.94 139.97 350.8 139.97C350.8 134.64 350.92 129.31 350.77 123.99C350.57 117.17 346.43 113.6 338.86 113.47C332.54 113.36 329.07 116.49 328.78 123.23C328.27 135.2 327.98 147.17 327.8 159.15C327.76 161.76 328.28 164.49 329.12 166.97C330.74 171.76 336.9 175.75 341.11 175.13C345.59 174.48 349.66 169.42 349.98 163.91C350.45 155.93 350.81 147.96 351.21 139.98Z" fill="#671E75"/>
<path d="M268.84 342.5C253.64 342.27 253.64 342.27 249.39 327.65C248.65 325.1 248 322.52 247.22 319.97C245.41 314.02 243.03 312.72 235.89 313.07C230.65 313.33 228.94 316.27 228.21 321.05C227.46 325.94 225.99 330.76 224.44 335.48C223.25 339.09 220.58 341.19 216.49 341.05C210.18 340.84 203.84 341.01 197.56 340.48C192.04 340.02 190.12 337.4 191.35 332.02C194.32 319.05 197.62 306.15 200.78 293.23C204.85 276.58 208.77 259.9 213.02 243.31C214.75 236.56 217.18 229.98 219.3 223.33C220.44 219.75 222.74 217.84 226.67 217.88C232.31 217.93 237.97 217.58 243.6 217.76C250.49 217.98 254.54 222 256.38 228.41C262.06 248.21 267.73 268.02 273.35 287.84C277.61 302.87 281.87 317.9 285.93 332.99C287.47 338.72 286.02 340.74 280.26 341.54C276.48 342.06 272.65 342.19 268.84 342.5ZM237.73 284.33C244.15 284.43 246.44 283.03 245.53 279.01C244.33 273.68 242.69 268.43 240.91 263.26C240.46 261.93 238.77 260.15 237.67 260.17C236.45 260.18 234.68 261.78 234.15 263.1C232.67 266.78 231.64 270.65 230.56 274.48C228.17 282.96 229.09 284.2 237.73 284.33Z" fill="#671E75"/>
<path d="M104.88 142.41C104.88 128.28 104.5 114.13 104.97 100.02C105.61 80.66 111.86 76.98 127.78 77.63C143.4 78.26 159.02 78.63 174.64 79.31C183.71 79.7 185.55 81.6 186.38 90.62C186.7 94.1 186.92 97.6 186.87 101.09C186.75 109.27 184.3 112.35 175.97 113.02C168.87 113.59 161.69 113.07 154.54 113C152.71 112.98 150.88 112.68 149.06 112.78C143.76 113.08 141.36 115.6 141.4 120.57C141.45 126.1 143.63 128.3 149.36 128.4C154.02 128.48 158.67 128.37 163.33 128.43C169.99 128.52 173.12 131.45 173.64 137.98C173.72 138.98 173.86 139.97 173.85 140.97C173.74 152.55 172.14 157.81 157.88 156.8C140.75 155.58 140.78 155.92 140.21 173.04C139.96 180.52 139.43 187.99 139.04 195.46C138.79 200.15 136.13 202.45 131.63 202.4C125.65 202.33 119.65 202.22 113.71 201.65C108.67 201.16 106.85 197.18 106.47 192.8C105.9 186.18 105.64 179.52 105.55 172.87C105.41 162.73 105.51 152.58 105.51 142.44C105.29 142.41 105.08 142.41 104.88 142.41Z" fill="#671E75"/>
</g>
<defs>
<clipPath id="clip0">
<rect width="588.57" height="419.82" fill="white"/>
</clipPath>
</defs>
</svg>
